<svg xmlns="http://www.w3.org/2000/svg" viewBox="0 0 100 100" width="100" height="100">
  <defs>
    <linearGradient id="markerGradient" x1="0%" y1="0%" x2="0%" y2="100%">
      <stop offset="0%" style="stop-color:#4f46e5;stop-opacity:1" />
      <stop offset="100%" style="stop-color:#7c3aed;stop-opacity:1" />
    </linearGradient>
    <linearGradient id="innerGradient" x1="0%" y1="0%" x2="0%" y2="100%">
      <stop offset="0%" style="stop-color:#eef2ff;stop-opacity:1" />
      <stop offset="100%" style="stop-color:#c7d2fe;stop-opacity:1" />
    </linearGradient>
    <filter id="dropShadow" x="-20%" y="-20%" width="140%" height="140%">
      <feDropShadow dx="0" dy="2" stdDeviation="2" flood-color="#000000" flood-opacity="0.15" />
    </filter>
  </defs>

  <!-- Soft ground shadow -->
  <ellipse cx="50" cy="92" rx="16" ry="4" fill="#000000" opacity="0.08"/>

  <!-- White outer border -->
  <path d="M50 10 C65 10 78 23 78 38 C78 56 62 69 50 90 C38 69 22 56 22 38 C22 23 35 10 50 10 Z" fill="none" stroke="#ffffff" stroke-width="6" stroke-linejoin="round"/>

  <!-- Map marker body -->
  <path d="M50 10 C65 10 78 23 78 38 C78 56 62 69 50 90 C38 69 22 56 22 38 C22 23 35 10 50 10 Z" fill="url(#markerGradient)" stroke="#312e81" stroke-width="1" filter="url(#dropShadow)"/>

  <!-- Inner highlight circle -->
  <circle cx="50" cy="38" r="12" fill="url(#innerGradient)" stroke="#ffffff" stroke-opacity="0.6" stroke-width="1"/>
</svg>