<svg xmlns="http://www.w3.org/2000/svg" viewBox="0 0 100 100" width="100" height="100">
  <defs>
    <linearGradient id="carGradient" x1="0%" y1="0%" x2="0%" y2="100%">
      <stop offset="0%" style="stop-color:#4f46e5;stop-opacity:1" />
      <stop offset="100%" style="stop-color:#6366f1;stop-opacity:1" />
    </linearGradient>
    <linearGradient id="windowGradient" x1="0%" y1="0%" x2="0%" y2="100%">
      <stop offset="0%" style="stop-color:#e0e7ff;stop-opacity:1" />
      <stop offset="100%" style="stop-color:#c7d2fe;stop-opacity:1" />
    </linearGradient>
  </defs>
  
  <!-- Car body -->
  <rect x="15" y="45" width="70" height="25" rx="12" ry="12" fill="url(#carGradient)" stroke="#3730a3" stroke-width="1"/>
  
  <!-- Car roof -->
  <path d="M25 45 Q25 30 35 30 L65 30 Q75 30 75 45 Z" fill="url(#carGradient)" stroke="#3730a3" stroke-width="1"/>
  
  <!-- Windows -->
  <path d="M30 42 Q30 35 35 35 L65 35 Q70 35 70 42 Z" fill="url(#windowGradient)" opacity="0.9"/>
  
  <!-- Front and rear lights -->
  <circle cx="20" cy="57" r="3" fill="#fbbf24" opacity="0.9"/>
  <circle cx="80" cy="57" r="3" fill="#ef4444" opacity="0.9"/>
  
  <!-- Wheels -->
  <circle cx="30" cy="72" r="8" fill="#374151" stroke="#1f2937" stroke-width="2"/>
  <circle cx="70" cy="72" r="8" fill="#374151" stroke="#1f2937" stroke-width="2"/>
  <circle cx="30" cy="72" r="4" fill="#6b7280"/>
  <circle cx="70" cy="72" r="4" fill="#6b7280"/>
  
  <!-- Speed lines for motion effect -->
  <path d="M5 35 L12 35" stroke="#9ca3af" stroke-width="2" stroke-linecap="round" opacity="0.6"/>
  <path d="M3 42 L15 42" stroke="#9ca3af" stroke-width="2" stroke-linecap="round" opacity="0.6"/>
  <path d="M5 49 L12 49" stroke="#9ca3af" stroke-width="2" stroke-linecap="round" opacity="0.6"/>
</svg> 